# Blender v2.90.1 OBJ File: ''
# www.blender.org
mtllib Tensan1.mtl
o Torus.005
v 5.260000 0.000000 0.000000
v 4.885000 0.068218 0.000000
v 4.885000 -0.068218 0.000000
v 5.234672 0.000000 -0.515570
v 4.861477 0.068218 -0.478814
v 4.861477 -0.068218 -0.478814
v 5.158930 0.000000 -1.026175
v 4.791136 0.068218 -0.953017
v 4.791136 -0.068218 -0.953017
v 5.033506 0.000000 -1.526898
v 4.674653 0.068218 -1.418041
v 4.674653 -0.068218 -1.418041
v 4.859606 0.000000 -2.012914
v 4.513152 0.068218 -1.869408
v 4.513152 -0.068218 -1.869408
v 4.638906 0.000000 -2.479547
v 4.308185 0.068218 -2.302773
v 4.308185 -0.068218 -2.302773
v 4.373530 0.000000 -2.922299
v 4.061729 0.068218 -2.713960
v 4.061729 -0.068218 -2.713960
v 4.066035 0.000000 -3.336909
v 3.776156 0.068218 -3.099011
v 3.776156 -0.068218 -3.099011
v 3.719381 0.000000 -3.719382
v 3.454216 0.068218 -3.454217
v 3.454216 -0.068218 -3.454217
v 3.336909 0.000000 -4.066034
v 3.099012 0.068218 -3.776155
v 3.099012 -0.068218 -3.776155
v 2.922299 0.000000 -4.373530
v 2.713960 0.068218 -4.061729
v 2.713960 -0.068218 -4.061729
v 2.479547 0.000000 -4.638906
v 2.302773 0.068218 -4.308185
v 2.302773 -0.068218 -4.308185
v 2.012916 0.000000 -4.859606
v 1.869410 0.068218 -4.513151
v 1.869410 -0.068218 -4.513151
v 1.526897 0.000000 -5.033506
v 1.418040 0.068218 -4.674654
v 1.418040 -0.068218 -4.674654
v 1.026176 0.000000 -5.158930
v 0.953017 0.068218 -4.791136
v 0.953017 -0.068218 -4.791136
v 0.515569 0.000000 -5.234672
v 0.478813 0.068218 -4.861477
v 0.478813 -0.068218 -4.861477
v 0.000000 0.000000 -5.260000
v 0.000000 0.068218 -4.885000
v 0.000000 -0.068218 -4.885000
v -0.515571 0.000000 -5.234672
v -0.478815 0.068218 -4.861477
v -0.478815 -0.068218 -4.861477
v -1.026175 0.000000 -5.158930
v -0.953016 0.068218 -4.791136
v -0.953016 -0.068218 -4.791136
v -1.526896 0.000000 -5.033506
v -1.418040 0.068218 -4.674654
v -1.418040 -0.068218 -4.674654
v -2.012915 0.000000 -4.859606
v -1.869409 0.068218 -4.513151
v -1.869409 -0.068218 -4.513151
v -2.479546 0.000000 -4.638906
v -2.302772 0.068218 -4.308185
v -2.302772 -0.068218 -4.308185
v -2.922298 0.000000 -4.373531
v -2.713959 0.068218 -4.061729
v -2.713959 -0.068218 -4.061729
v -3.336909 0.000000 -4.066035
v -3.099011 0.068218 -3.776156
v -3.099011 -0.068218 -3.776156
v -3.719382 0.000000 -3.719380
v -3.454217 0.068218 -3.454216
v -3.454217 -0.068218 -3.454216
v -4.066035 0.000000 -3.336909
v -3.776156 0.068218 -3.099011
v -3.776156 -0.068218 -3.099011
v -4.373529 0.000000 -2.922300
v -4.061728 0.068218 -2.713961
v -4.061728 -0.068218 -2.713961
v -4.638906 0.000000 -2.479546
v -4.308186 0.068218 -2.302772
v -4.308186 -0.068218 -2.302772
v -4.859606 0.000000 -2.012915
v -4.513151 0.068218 -1.869409
v -4.513151 -0.068218 -1.869409
v -5.033505 0.000000 -1.526899
v -4.674653 0.068218 -1.418042
v -4.674653 -0.068218 -1.418042
v -5.158930 0.000000 -1.026175
v -4.791136 0.068218 -0.953016
v -4.791136 -0.068218 -0.953016
v -5.234672 0.000000 -0.515569
v -4.861477 0.068218 -0.478812
v -4.861477 -0.068218 -0.478812
v -5.260000 0.000000 -0.000000
v -4.885000 0.068218 -0.000000
v -4.885000 -0.068218 -0.000000
v -5.234672 0.000000 0.515569
v -4.861477 0.068218 0.478812
v -4.861477 -0.068218 0.478812
v -5.158930 0.000000 1.026175
v -4.791136 0.068218 0.953016
v -4.791136 -0.068218 0.953016
v -5.033506 0.000000 1.526896
v -4.674654 0.068218 1.418040
v -4.674654 -0.068218 1.418040
v -4.859607 0.000000 2.012913
v -4.513152 0.068218 1.869407
v -4.513152 -0.068218 1.869407
v -4.638906 0.000000 2.479546
v -4.308186 0.068218 2.302772
v -4.308186 -0.068218 2.302772
v -4.373529 0.000000 2.922300
v -4.061728 0.068218 2.713961
v -4.061728 -0.068218 2.713961
v -4.066037 0.000000 3.336906
v -3.776158 0.068218 3.099009
v -3.776158 -0.068218 3.099009
v -3.719382 0.000000 3.719380
v -3.454217 0.068218 3.454216
v -3.454217 -0.068218 3.454216
v -3.336909 0.000000 4.066035
v -3.099011 0.068218 3.776156
v -3.099011 -0.068218 3.776156
v -2.922302 0.000000 4.373528
v -2.713963 0.068218 4.061727
v -2.713963 -0.068218 4.061727
v -2.479548 0.000000 4.638905
v -2.302774 0.068218 4.308185
v -2.302774 -0.068218 4.308185
v -2.012915 0.000000 4.859606
v -1.869409 0.068218 4.513151
v -1.869409 -0.068218 4.513151
v -1.526896 0.000000 5.033506
v -1.418040 0.068218 4.674654
v -1.418040 -0.068218 4.674654
v -1.026178 0.000000 5.158930
v -0.953018 0.068218 4.791135
v -0.953018 -0.068218 4.791135
v -0.515571 0.000000 5.234672
v -0.478815 0.068218 4.861477
v -0.478815 -0.068218 4.861477
v 0.000000 0.000000 5.260000
v 0.000000 0.068218 4.885000
v 0.000000 -0.068218 4.885000
v 0.515567 0.000000 5.234672
v 0.478811 0.068218 4.861477
v 0.478811 -0.068218 4.861477
v 1.026173 0.000000 5.158931
v 0.953015 0.068218 4.791136
v 0.953015 -0.068218 4.791136
v 1.526897 0.000000 5.033506
v 1.418040 0.068218 4.674654
v 1.418040 -0.068218 4.674654
v 2.012916 0.000000 4.859606
v 1.869410 0.068218 4.513151
v 1.869410 -0.068218 4.513151
v 2.479545 0.000000 4.638906
v 2.302771 0.068218 4.308186
v 2.302771 -0.068218 4.308186
v 2.922299 0.000000 4.373530
v 2.713960 0.068218 4.061729
v 2.713960 -0.068218 4.061729
v 3.336909 0.000000 4.066034
v 3.099012 0.068218 3.776155
v 3.099012 -0.068218 3.776155
v 3.719380 0.000000 3.719384
v 3.454215 0.068218 3.454218
v 3.454215 -0.068218 3.454218
v 4.066034 0.000000 3.336910
v 3.776155 0.068218 3.099012
v 3.776155 -0.068218 3.099012
v 4.373530 0.000000 2.922299
v 4.061729 0.068218 2.713960
v 4.061729 -0.068218 2.713960
v 4.638906 0.000000 2.479546
v 4.308186 0.068218 2.302772
v 4.308186 -0.068218 2.302772
v 4.859605 0.000000 2.012917
v 4.513151 0.068218 1.869410
v 4.513151 -0.068218 1.869410
v 5.033506 0.000000 1.526898
v 4.674653 0.068218 1.418041
v 4.674653 -0.068218 1.418041
v 5.158930 0.000000 1.026174
v 4.791136 0.068218 0.953015
v 4.791136 -0.068218 0.953015
v 5.234671 0.000000 0.515573
v 4.861477 0.068218 0.478816
v 4.861477 -0.068218 0.478816
vt 0.500000 0.666667
vt 0.515625 0.666667
vt 0.515625 1.000000
vt 0.500000 1.000000
vt 0.500000 0.000000
vt 0.515625 0.000000
vt 0.515625 0.333333
vt 0.500000 0.333333
vt 0.531250 0.666667
vt 0.531250 1.000000
vt 0.531250 0.000000
vt 0.531250 0.333333
vt 0.546875 0.666667
vt 0.546875 1.000000
vt 0.546875 0.000000
vt 0.546875 0.333333
vt 0.562500 0.666667
vt 0.562500 1.000000
vt 0.562500 0.000000
vt 0.562500 0.333333
vt 0.578125 0.666667
vt 0.578125 1.000000
vt 0.578125 0.000000
vt 0.578125 0.333333
vt 0.593750 0.666667
vt 0.593750 1.000000
vt 0.593750 0.000000
vt 0.593750 0.333333
vt 0.609375 0.666667
vt 0.609375 1.000000
vt 0.609375 0.000000
vt 0.609375 0.333333
vt 0.625000 0.666667
vt 0.625000 1.000000
vt 0.625000 0.000000
vt 0.625000 0.333333
vt 0.640625 0.666667
vt 0.640625 1.000000
vt 0.640625 0.000000
vt 0.640625 0.333333
vt 0.656250 0.666667
vt 0.656250 1.000000
vt 0.656250 0.000000
vt 0.656250 0.333333
vt 0.671875 0.666667
vt 0.671875 1.000000
vt 0.671875 0.000000
vt 0.671875 0.333333
vt 0.687500 0.666667
vt 0.687500 1.000000
vt 0.687500 0.000000
vt 0.687500 0.333333
vt 0.703125 0.666667
vt 0.703125 1.000000
vt 0.703125 0.000000
vt 0.703125 0.333333
vt 0.718750 0.666667
vt 0.718750 1.000000
vt 0.718750 0.000000
vt 0.718750 0.333333
vt 0.734375 0.666667
vt 0.734375 1.000000
vt 0.734375 0.000000
vt 0.734375 0.333333
vt 0.750000 0.666667
vt 0.750000 1.000000
vt 0.750000 0.000000
vt 0.750000 0.333333
vt 0.765625 0.666667
vt 0.765625 1.000000
vt 0.765625 0.000000
vt 0.765625 0.333333
vt 0.781250 0.666667
vt 0.781250 1.000000
vt 0.781250 0.000000
vt 0.781250 0.333333
vt 0.796875 0.666667
vt 0.796875 1.000000
vt 0.796875 0.000000
vt 0.796875 0.333333
vt 0.812500 0.666667
vt 0.812500 1.000000
vt 0.812500 0.000000
vt 0.812500 0.333333
vt 0.828125 0.666667
vt 0.828125 1.000000
vt 0.828125 0.000000
vt 0.828125 0.333333
vt 0.843750 0.666667
vt 0.843750 1.000000
vt 0.843750 0.000000
vt 0.843750 0.333333
vt 0.859375 0.666667
vt 0.859375 1.000000
vt 0.859375 0.000000
vt 0.859375 0.333333
vt 0.875000 0.666667
vt 0.875000 1.000000
vt 0.875000 0.000000
vt 0.875000 0.333333
vt 0.890625 0.666667
vt 0.890625 1.000000
vt 0.890625 0.000000
vt 0.890625 0.333333
vt 0.906250 0.666667
vt 0.906250 1.000000
vt 0.906250 0.000000
vt 0.906250 0.333333
vt 0.921875 0.666667
vt 0.921875 1.000000
vt 0.921875 0.000000
vt 0.921875 0.333333
vt 0.937500 0.666667
vt 0.937500 1.000000
vt 0.937500 0.000000
vt 0.937500 0.333333
vt 0.953125 0.666667
vt 0.953125 1.000000
vt 0.953125 0.000000
vt 0.953125 0.333333
vt 0.968750 0.666667
vt 0.968750 1.000000
vt 0.968750 0.000000
vt 0.968750 0.333333
vt 0.984375 0.666667
vt 0.984375 1.000000
vt 0.984375 0.000000
vt 0.984375 0.333333
vt 1.000000 0.666667
vt 1.000000 1.000000
vt 1.000000 0.000000
vt 1.000000 0.333333
vt 0.000000 0.666667
vt 0.015625 0.666667
vt 0.015625 1.000000
vt 0.000000 1.000000
vt 0.000000 0.000000
vt 0.015625 0.000000
vt 0.015625 0.333333
vt 0.000000 0.333333
vt 0.031250 0.666667
vt 0.031250 1.000000
vt 0.031250 0.000000
vt 0.031250 0.333333
vt 0.046875 0.666667
vt 0.046875 1.000000
vt 0.046875 0.000000
vt 0.046875 0.333333
vt 0.062500 0.666667
vt 0.062500 1.000000
vt 0.062500 0.000000
vt 0.062500 0.333333
vt 0.078125 0.666667
vt 0.078125 1.000000
vt 0.078125 0.000000
vt 0.078125 0.333333
vt 0.093750 0.666667
vt 0.093750 1.000000
vt 0.093750 0.000000
vt 0.093750 0.333333
vt 0.109375 0.666667
vt 0.109375 1.000000
vt 0.109375 0.000000
vt 0.109375 0.333333
vt 0.125000 0.666667
vt 0.125000 1.000000
vt 0.125000 0.000000
vt 0.125000 0.333333
vt 0.140625 0.666667
vt 0.140625 1.000000
vt 0.140625 0.000000
vt 0.140625 0.333333
vt 0.156250 0.666667
vt 0.156250 1.000000
vt 0.156250 0.000000
vt 0.156250 0.333333
vt 0.171875 0.666667
vt 0.171875 1.000000
vt 0.171875 0.000000
vt 0.171875 0.333333
vt 0.187500 0.666667
vt 0.187500 1.000000
vt 0.187500 0.000000
vt 0.187500 0.333333
vt 0.203125 0.666667
vt 0.203125 1.000000
vt 0.203125 0.000000
vt 0.203125 0.333333
vt 0.218750 0.666667
vt 0.218750 1.000000
vt 0.218750 0.000000
vt 0.218750 0.333333
vt 0.234375 0.666667
vt 0.234375 1.000000
vt 0.234375 0.000000
vt 0.234375 0.333333
vt 0.250000 0.666667
vt 0.250000 1.000000
vt 0.250000 0.000000
vt 0.250000 0.333333
vt 0.265625 0.666667
vt 0.265625 1.000000
vt 0.265625 0.000000
vt 0.265625 0.333333
vt 0.281250 0.666667
vt 0.281250 1.000000
vt 0.281250 0.000000
vt 0.281250 0.333333
vt 0.296875 0.666667
vt 0.296875 1.000000
vt 0.296875 0.000000
vt 0.296875 0.333333
vt 0.312500 0.666667
vt 0.312500 1.000000
vt 0.312500 0.000000
vt 0.312500 0.333333
vt 0.328125 0.666667
vt 0.328125 1.000000
vt 0.328125 0.000000
vt 0.328125 0.333333
vt 0.343750 0.666667
vt 0.343750 1.000000
vt 0.343750 0.000000
vt 0.343750 0.333333
vt 0.359375 0.666667
vt 0.359375 1.000000
vt 0.359375 0.000000
vt 0.359375 0.333333
vt 0.375000 0.666667
vt 0.375000 1.000000
vt 0.375000 0.000000
vt 0.375000 0.333333
vt 0.390625 0.666667
vt 0.390625 1.000000
vt 0.390625 0.000000
vt 0.390625 0.333333
vt 0.406250 0.666667
vt 0.406250 1.000000
vt 0.406250 0.000000
vt 0.406250 0.333333
vt 0.421875 0.666667
vt 0.421875 1.000000
vt 0.421875 0.000000
vt 0.421875 0.333333
vt 0.437500 0.666667
vt 0.437500 1.000000
vt 0.437500 0.000000
vt 0.437500 0.333333
vt 0.453125 0.666667
vt 0.453125 1.000000
vt 0.453125 0.000000
vt 0.453125 0.333333
vt 0.468750 0.666667
vt 0.468750 1.000000
vt 0.468750 0.000000
vt 0.468750 0.333333
vt 0.484375 0.666667
vt 0.484375 1.000000
vt 0.484375 0.000000
vt 0.484375 0.333333
vn 1.0000 0.0000 0.0000
vn 0.9952 0.0000 -0.0980
vn -0.6231 0.7797 0.0613
vn -0.6261 0.7797 0.0000
vn -0.6231 -0.7797 0.0613
vn -0.6261 -0.7797 0.0000
vn 0.9808 0.0000 -0.1951
vn -0.6141 0.7797 0.1221
vn -0.6141 -0.7797 0.1221
vn 0.9569 0.0000 -0.2903
vn -0.5992 0.7797 0.1817
vn -0.5992 -0.7797 0.1817
vn 0.9239 0.0000 -0.3827
vn -0.5784 0.7797 0.2396
vn -0.5784 -0.7797 0.2396
vn 0.8819 0.0000 -0.4714
vn -0.5522 0.7797 0.2951
vn -0.5522 -0.7797 0.2951
vn 0.8314 0.0000 -0.5556
vn -0.5206 0.7797 0.3478
vn -0.5206 -0.7797 0.3478
vn 0.7730 0.0000 -0.6344
vn -0.4840 0.7797 0.3972
vn -0.4840 -0.7797 0.3972
vn 0.7071 0.0000 -0.7071
vn -0.4427 0.7797 0.4427
vn -0.4427 -0.7797 0.4427
vn 0.6344 0.0000 -0.7730
vn -0.3972 0.7797 0.4840
vn -0.3972 -0.7797 0.4840
vn 0.5556 0.0000 -0.8314
vn -0.3478 0.7797 0.5206
vn -0.3478 -0.7797 0.5206
vn 0.4714 0.0000 -0.8819
vn -0.2951 0.7797 0.5522
vn -0.2951 -0.7797 0.5522
vn 0.3827 0.0000 -0.9239
vn -0.2396 0.7797 0.5784
vn -0.2396 -0.7797 0.5784
vn 0.2903 0.0000 -0.9569
vn -0.1817 0.7797 0.5992
vn -0.1817 -0.7797 0.5992
vn 0.1951 0.0000 -0.9808
vn -0.1221 0.7797 0.6141
vn -0.1221 -0.7797 0.6141
vn 0.0980 0.0000 -0.9952
vn -0.0613 0.7797 0.6231
vn -0.0613 -0.7797 0.6231
vn 0.0000 0.0000 -1.0000
vn 0.0000 0.7797 0.6261
vn 0.0000 -0.7797 0.6261
vn -0.0980 0.0000 -0.9952
vn 0.0613 0.7797 0.6231
vn 0.0613 -0.7797 0.6231
vn -0.1951 0.0000 -0.9808
vn 0.1221 0.7797 0.6141
vn 0.1221 -0.7797 0.6141
vn -0.2903 0.0000 -0.9569
vn 0.1817 0.7797 0.5992
vn 0.1817 -0.7797 0.5992
vn -0.3827 0.0000 -0.9239
vn 0.2396 0.7797 0.5784
vn 0.2396 -0.7797 0.5784
vn -0.4714 0.0000 -0.8819
vn 0.2951 0.7797 0.5522
vn 0.2951 -0.7797 0.5522
vn -0.5556 0.0000 -0.8314
vn 0.3478 0.7797 0.5206
vn 0.3478 -0.7797 0.5206
vn -0.6344 0.0000 -0.7730
vn 0.3972 0.7797 0.4840
vn 0.3972 -0.7797 0.4840
vn -0.7071 0.0000 -0.7071
vn 0.4427 0.7797 0.4427
vn 0.4427 -0.7797 0.4427
vn -0.7730 0.0000 -0.6344
vn 0.4840 0.7797 0.3972
vn 0.4840 -0.7797 0.3972
vn -0.8314 0.0000 -0.5556
vn 0.5206 0.7797 0.3478
vn 0.5206 -0.7797 0.3478
vn -0.8819 0.0000 -0.4714
vn 0.5522 0.7797 0.2951
vn 0.5522 -0.7797 0.2951
vn -0.9239 0.0000 -0.3827
vn 0.5784 0.7797 0.2396
vn 0.5784 -0.7797 0.2396
vn -0.9569 0.0000 -0.2903
vn 0.5992 0.7797 0.1817
vn 0.5992 -0.7797 0.1817
vn -0.9808 0.0000 -0.1951
vn 0.6141 0.7797 0.1221
vn 0.6141 -0.7797 0.1221
vn -0.9952 0.0000 -0.0980
vn 0.6231 0.7797 0.0613
vn 0.6231 -0.7797 0.0613
vn -1.0000 0.0000 0.0000
vn 0.6261 0.7797 0.0000
vn 0.6261 -0.7797 0.0000
vn -0.9952 0.0000 0.0980
vn 0.6231 0.7797 -0.0613
vn 0.6231 -0.7797 -0.0613
vn -0.9808 0.0000 0.1951
vn 0.6141 0.7797 -0.1221
vn 0.6141 -0.7797 -0.1221
vn -0.9569 0.0000 0.2903
vn 0.5992 0.7797 -0.1817
vn 0.5992 -0.7797 -0.1817
vn -0.9239 0.0000 0.3827
vn 0.5784 0.7797 -0.2396
vn 0.5784 -0.7797 -0.2396
vn -0.8819 0.0000 0.4714
vn 0.5522 0.7797 -0.2951
vn 0.5522 -0.7797 -0.2951
vn -0.8314 0.0000 0.5556
vn 0.5206 0.7797 -0.3478
vn 0.5206 -0.7797 -0.3478
vn -0.7730 0.0000 0.6344
vn 0.4840 0.7797 -0.3972
vn 0.4840 -0.7797 -0.3972
vn -0.7071 0.0000 0.7071
vn 0.4427 0.7797 -0.4427
vn 0.4427 -0.7797 -0.4427
vn -0.6344 0.0000 0.7730
vn 0.3972 0.7797 -0.4840
vn 0.3972 -0.7797 -0.4840
vn -0.5556 0.0000 0.8314
vn 0.3478 0.7797 -0.5206
vn 0.3478 -0.7797 -0.5206
vn -0.4714 0.0000 0.8819
vn 0.2951 0.7797 -0.5522
vn 0.2951 -0.7797 -0.5522
vn -0.3827 0.0000 0.9239
vn 0.2396 0.7797 -0.5784
vn 0.2396 -0.7797 -0.5784
vn -0.2903 0.0000 0.9569
vn 0.1817 0.7797 -0.5992
vn 0.1817 -0.7797 -0.5992
vn -0.1951 0.0000 0.9808
vn 0.1221 0.7797 -0.6141
vn 0.1221 -0.7797 -0.6141
vn -0.0980 0.0000 0.9952
vn 0.0613 0.7797 -0.6231
vn 0.0613 -0.7797 -0.6231
vn 0.0000 0.0000 1.0000
vn 0.0000 0.7797 -0.6261
vn 0.0000 -0.7797 -0.6261
vn 0.0980 0.0000 0.9952
vn -0.0613 0.7797 -0.6231
vn -0.0613 -0.7797 -0.6231
vn 0.1951 0.0000 0.9808
vn -0.1221 0.7797 -0.6141
vn -0.1221 -0.7797 -0.6141
vn 0.2903 0.0000 0.9569
vn -0.1817 0.7797 -0.5992
vn -0.1817 -0.7797 -0.5992
vn 0.3827 0.0000 0.9239
vn -0.2396 0.7797 -0.5784
vn -0.2396 -0.7797 -0.5784
vn 0.4714 0.0000 0.8819
vn -0.2951 0.7797 -0.5522
vn -0.2951 -0.7797 -0.5522
vn 0.5556 0.0000 0.8314
vn -0.3478 0.7797 -0.5206
vn -0.3478 -0.7797 -0.5206
vn 0.6344 0.0000 0.7730
vn -0.3972 0.7797 -0.4840
vn -0.3972 -0.7797 -0.4840
vn 0.7071 0.0000 0.7071
vn -0.4427 0.7797 -0.4427
vn -0.4427 -0.7797 -0.4427
vn 0.7730 0.0000 0.6344
vn -0.4840 0.7797 -0.3972
vn -0.4840 -0.7797 -0.3972
vn 0.8314 0.0000 0.5556
vn -0.5206 0.7797 -0.3478
vn -0.5206 -0.7797 -0.3478
vn 0.8819 0.0000 0.4714
vn -0.5522 0.7797 -0.2951
vn -0.5522 -0.7797 -0.2951
vn 0.9239 0.0000 0.3827
vn -0.5784 0.7797 -0.2396
vn -0.5784 -0.7797 -0.2396
vn 0.9569 0.0000 0.2903
vn -0.5992 0.7797 -0.1817
vn -0.5992 -0.7797 -0.1817
vn 0.9808 0.0000 0.1951
vn -0.6141 0.7797 -0.1221
vn -0.6141 -0.7797 -0.1221
vn 0.9952 0.0000 0.0980
vn -0.6231 0.7797 -0.0613
vn -0.6231 -0.7797 -0.0613
usemtl None
s 1
f 1/1/1 4/2/2 5/3/3 2/4/4
f 2/5/4 5/6/3 6/7/5 3/8/6
f 3/8/6 6/7/5 4/2/2 1/1/1
f 4/2/2 7/9/7 8/10/8 5/3/3
f 5/6/3 8/11/8 9/12/9 6/7/5
f 6/7/5 9/12/9 7/9/7 4/2/2
f 7/9/7 10/13/10 11/14/11 8/10/8
f 8/11/8 11/15/11 12/16/12 9/12/9
f 9/12/9 12/16/12 10/13/10 7/9/7
f 10/13/10 13/17/13 14/18/14 11/14/11
f 11/15/11 14/19/14 15/20/15 12/16/12
f 12/16/12 15/20/15 13/17/13 10/13/10
f 13/17/13 16/21/16 17/22/17 14/18/14
f 14/19/14 17/23/17 18/24/18 15/20/15
f 15/20/15 18/24/18 16/21/16 13/17/13
f 16/21/16 19/25/19 20/26/20 17/22/17
f 17/23/17 20/27/20 21/28/21 18/24/18
f 18/24/18 21/28/21 19/25/19 16/21/16
f 19/25/19 22/29/22 23/30/23 20/26/20
f 20/27/20 23/31/23 24/32/24 21/28/21
f 21/28/21 24/32/24 22/29/22 19/25/19
f 22/29/22 25/33/25 26/34/26 23/30/23
f 23/31/23 26/35/26 27/36/27 24/32/24
f 24/32/24 27/36/27 25/33/25 22/29/22
f 25/33/25 28/37/28 29/38/29 26/34/26
f 26/35/26 29/39/29 30/40/30 27/36/27
f 27/36/27 30/40/30 28/37/28 25/33/25
f 28/37/28 31/41/31 32/42/32 29/38/29
f 29/39/29 32/43/32 33/44/33 30/40/30
f 30/40/30 33/44/33 31/41/31 28/37/28
f 31/41/31 34/45/34 35/46/35 32/42/32
f 32/43/32 35/47/35 36/48/36 33/44/33
f 33/44/33 36/48/36 34/45/34 31/41/31
f 34/45/34 37/49/37 38/50/38 35/46/35
f 35/47/35 38/51/38 39/52/39 36/48/36
f 36/48/36 39/52/39 37/49/37 34/45/34
f 37/49/37 40/53/40 41/54/41 38/50/38
f 38/51/38 41/55/41 42/56/42 39/52/39
f 39/52/39 42/56/42 40/53/40 37/49/37
f 40/53/40 43/57/43 44/58/44 41/54/41
f 41/55/41 44/59/44 45/60/45 42/56/42
f 42/56/42 45/60/45 43/57/43 40/53/40
f 43/57/43 46/61/46 47/62/47 44/58/44
f 44/59/44 47/63/47 48/64/48 45/60/45
f 45/60/45 48/64/48 46/61/46 43/57/43
f 46/61/46 49/65/49 50/66/50 47/62/47
f 47/63/47 50/67/50 51/68/51 48/64/48
f 48/64/48 51/68/51 49/65/49 46/61/46
f 49/65/49 52/69/52 53/70/53 50/66/50
f 50/67/50 53/71/53 54/72/54 51/68/51
f 51/68/51 54/72/54 52/69/52 49/65/49
f 52/69/52 55/73/55 56/74/56 53/70/53
f 53/71/53 56/75/56 57/76/57 54/72/54
f 54/72/54 57/76/57 55/73/55 52/69/52
f 55/73/55 58/77/58 59/78/59 56/74/56
f 56/75/56 59/79/59 60/80/60 57/76/57
f 57/76/57 60/80/60 58/77/58 55/73/55
f 58/77/58 61/81/61 62/82/62 59/78/59
f 59/79/59 62/83/62 63/84/63 60/80/60
f 60/80/60 63/84/63 61/81/61 58/77/58
f 61/81/61 64/85/64 65/86/65 62/82/62
f 62/83/62 65/87/65 66/88/66 63/84/63
f 63/84/63 66/88/66 64/85/64 61/81/61
f 64/85/64 67/89/67 68/90/68 65/86/65
f 65/87/65 68/91/68 69/92/69 66/88/66
f 66/88/66 69/92/69 67/89/67 64/85/64
f 67/89/67 70/93/70 71/94/71 68/90/68
f 68/91/68 71/95/71 72/96/72 69/92/69
f 69/92/69 72/96/72 70/93/70 67/89/67
f 70/93/70 73/97/73 74/98/74 71/94/71
f 71/95/71 74/99/74 75/100/75 72/96/72
f 72/96/72 75/100/75 73/97/73 70/93/70
f 73/97/73 76/101/76 77/102/77 74/98/74
f 74/99/74 77/103/77 78/104/78 75/100/75
f 75/100/75 78/104/78 76/101/76 73/97/73
f 76/101/76 79/105/79 80/106/80 77/102/77
f 77/103/77 80/107/80 81/108/81 78/104/78
f 78/104/78 81/108/81 79/105/79 76/101/76
f 79/105/79 82/109/82 83/110/83 80/106/80
f 80/107/80 83/111/83 84/112/84 81/108/81
f 81/108/81 84/112/84 82/109/82 79/105/79
f 82/109/82 85/113/85 86/114/86 83/110/83
f 83/111/83 86/115/86 87/116/87 84/112/84
f 84/112/84 87/116/87 85/113/85 82/109/82
f 85/113/85 88/117/88 89/118/89 86/114/86
f 86/115/86 89/119/89 90/120/90 87/116/87
f 87/116/87 90/120/90 88/117/88 85/113/85
f 88/117/88 91/121/91 92/122/92 89/118/89
f 89/119/89 92/123/92 93/124/93 90/120/90
f 90/120/90 93/124/93 91/121/91 88/117/88
f 91/121/91 94/125/94 95/126/95 92/122/92
f 92/123/92 95/127/95 96/128/96 93/124/93
f 93/124/93 96/128/96 94/125/94 91/121/91
f 94/125/94 97/129/97 98/130/98 95/126/95
f 95/127/95 98/131/98 99/132/99 96/128/96
f 96/128/96 99/132/99 97/129/97 94/125/94
f 97/133/97 100/134/100 101/135/101 98/136/98
f 98/137/98 101/138/101 102/139/102 99/140/99
f 99/140/99 102/139/102 100/134/100 97/133/97
f 100/134/100 103/141/103 104/142/104 101/135/101
f 101/138/101 104/143/104 105/144/105 102/139/102
f 102/139/102 105/144/105 103/141/103 100/134/100
f 103/141/103 106/145/106 107/146/107 104/142/104
f 104/143/104 107/147/107 108/148/108 105/144/105
f 105/144/105 108/148/108 106/145/106 103/141/103
f 106/145/106 109/149/109 110/150/110 107/146/107
f 107/147/107 110/151/110 111/152/111 108/148/108
f 108/148/108 111/152/111 109/149/109 106/145/106
f 109/149/109 112/153/112 113/154/113 110/150/110
f 110/151/110 113/155/113 114/156/114 111/152/111
f 111/152/111 114/156/114 112/153/112 109/149/109
f 112/153/112 115/157/115 116/158/116 113/154/113
f 113/155/113 116/159/116 117/160/117 114/156/114
f 114/156/114 117/160/117 115/157/115 112/153/112
f 115/157/115 118/161/118 119/162/119 116/158/116
f 116/159/116 119/163/119 120/164/120 117/160/117
f 117/160/117 120/164/120 118/161/118 115/157/115
f 118/161/118 121/165/121 122/166/122 119/162/119
f 119/163/119 122/167/122 123/168/123 120/164/120
f 120/164/120 123/168/123 121/165/121 118/161/118
f 121/165/121 124/169/124 125/170/125 122/166/122
f 122/167/122 125/171/125 126/172/126 123/168/123
f 123/168/123 126/172/126 124/169/124 121/165/121
f 124/169/124 127/173/127 128/174/128 125/170/125
f 125/171/125 128/175/128 129/176/129 126/172/126
f 126/172/126 129/176/129 127/173/127 124/169/124
f 127/173/127 130/177/130 131/178/131 128/174/128
f 128/175/128 131/179/131 132/180/132 129/176/129
f 129/176/129 132/180/132 130/177/130 127/173/127
f 130/177/130 133/181/133 134/182/134 131/178/131
f 131/179/131 134/183/134 135/184/135 132/180/132
f 132/180/132 135/184/135 133/181/133 130/177/130
f 133/181/133 136/185/136 137/186/137 134/182/134
f 134/183/134 137/187/137 138/188/138 135/184/135
f 135/184/135 138/188/138 136/185/136 133/181/133
f 136/185/136 139/189/139 140/190/140 137/186/137
f 137/187/137 140/191/140 141/192/141 138/188/138
f 138/188/138 141/192/141 139/189/139 136/185/136
f 139/189/139 142/193/142 143/194/143 140/190/140
f 140/191/140 143/195/143 144/196/144 141/192/141
f 141/192/141 144/196/144 142/193/142 139/189/139
f 142/193/142 145/197/145 146/198/146 143/194/143
f 143/195/143 146/199/146 147/200/147 144/196/144
f 144/196/144 147/200/147 145/197/145 142/193/142
f 145/197/145 148/201/148 149/202/149 146/198/146
f 146/199/146 149/203/149 150/204/150 147/200/147
f 147/200/147 150/204/150 148/201/148 145/197/145
f 148/201/148 151/205/151 152/206/152 149/202/149
f 149/203/149 152/207/152 153/208/153 150/204/150
f 150/204/150 153/208/153 151/205/151 148/201/148
f 151/205/151 154/209/154 155/210/155 152/206/152
f 152/207/152 155/211/155 156/212/156 153/208/153
f 153/208/153 156/212/156 154/209/154 151/205/151
f 154/209/154 157/213/157 158/214/158 155/210/155
f 155/211/155 158/215/158 159/216/159 156/212/156
f 156/212/156 159/216/159 157/213/157 154/209/154
f 157/213/157 160/217/160 161/218/161 158/214/158
f 158/215/158 161/219/161 162/220/162 159/216/159
f 159/216/159 162/220/162 160/217/160 157/213/157
f 160/217/160 163/221/163 164/222/164 161/218/161
f 161/219/161 164/223/164 165/224/165 162/220/162
f 162/220/162 165/224/165 163/221/163 160/217/160
f 163/221/163 166/225/166 167/226/167 164/222/164
f 164/223/164 167/227/167 168/228/168 165/224/165
f 165/224/165 168/228/168 166/225/166 163/221/163
f 166/225/166 169/229/169 170/230/170 167/226/167
f 167/227/167 170/231/170 171/232/171 168/228/168
f 168/228/168 171/232/171 169/229/169 166/225/166
f 169/229/169 172/233/172 173/234/173 170/230/170
f 170/231/170 173/235/173 174/236/174 171/232/171
f 171/232/171 174/236/174 172/233/172 169/229/169
f 172/233/172 175/237/175 176/238/176 173/234/173
f 173/235/173 176/239/176 177/240/177 174/236/174
f 174/236/174 177/240/177 175/237/175 172/233/172
f 175/237/175 178/241/178 179/242/179 176/238/176
f 176/239/176 179/243/179 180/244/180 177/240/177
f 177/240/177 180/244/180 178/241/178 175/237/175
f 178/241/178 181/245/181 182/246/182 179/242/179
f 179/243/179 182/247/182 183/248/183 180/244/180
f 180/244/180 183/248/183 181/245/181 178/241/178
f 181/245/181 184/249/184 185/250/185 182/246/182
f 182/247/182 185/251/185 186/252/186 183/248/183
f 183/248/183 186/252/186 184/249/184 181/245/181
f 184/249/184 187/253/187 188/254/188 185/250/185
f 185/251/185 188/255/188 189/256/189 186/252/186
f 186/252/186 189/256/189 187/253/187 184/249/184
f 187/253/187 190/257/190 191/258/191 188/254/188
f 188/255/188 191/259/191 192/260/192 189/256/189
f 189/256/189 192/260/192 190/257/190 187/253/187
f 190/257/190 1/1/1 2/4/4 191/258/191
f 191/259/191 2/5/4 3/8/6 192/260/192
f 192/260/192 3/8/6 1/1/1 190/257/190
